<svg id="6fc7d081-e322-40a8-979f-1b491a7459d8" data-name="Layer 1" xmlns="http://www.w3.org/2000/svg" viewBox="0 0 96 80"><title>gw-logo</title><path d="M38.54,43.33H31.25V39.07H43V52.68a19.91,19.91,0,0,1-10.82,2.95C23.38,55.63,16,49.4,16,40c0-9.9,7.76-15.68,16.56-15.68a22.89,22.89,0,0,1,8.3,1.39v4.38h0a21.91,21.91,0,0,0-8.22-1.56C25,28.58,20.93,33.51,20.93,40A11,11,0,0,0,32.39,51.46a13.56,13.56,0,0,0,6.16-1.22V43.33Z" style="fill:#033c5a"/><path d="M69.63,54.83L62.18,38.48,55,54.83H53.75L44.57,25.26h4.67L55.1,44.93l6.82-15.16H62.8l6.87,15.08,5.89-19.59H80L70.86,54.83H69.63Z" style="fill:#033c5a"/><path d="M16,64V60H80v4H16Z" style="fill:#aa9868"/><path d="M16,20V16H80v4H16Z" style="fill:#aa9868"/></svg>